<svg width="36" height="36" viewBox="0 0 36 36" fill="none" xmlns="http://www.w3.org/2000/svg">
<g clip-path="url(#clip0_558_1471)">
<path d="M27.8022 9.54622C25.9994 8.76959 24.0661 8.19741 22.0448 7.86969C22.008 7.86337 21.9712 7.87917 21.9522 7.91079C21.7036 8.32596 21.4282 8.86759 21.2353 9.2933C19.0612 8.98772 16.8983 8.98772 14.7688 9.2933C14.5759 8.85812 14.2905 8.32596 14.0407 7.91079C14.0217 7.88023 13.985 7.86442 13.9482 7.86969C11.9279 8.19636 9.99466 8.76854 8.19071 9.54622C8.17509 9.55254 8.16171 9.56309 8.15282 9.57678C4.48582 14.7202 3.48127 19.7371 3.97407 24.6919C3.9763 24.7161 3.99079 24.7393 4.01086 24.754C6.43025 26.4221 8.77383 27.4348 11.0739 28.106C11.1107 28.1166 11.1497 28.1039 11.1731 28.0755C11.7172 27.3779 12.2022 26.6424 12.6181 25.8689C12.6426 25.8236 12.6192 25.7699 12.569 25.7519C11.7997 25.478 11.0672 25.1439 10.3626 24.7646C10.3068 24.734 10.3024 24.6592 10.3536 24.6234C10.5019 24.519 10.6503 24.4105 10.7918 24.3009C10.8175 24.2809 10.8532 24.2767 10.8833 24.2893C15.5124 26.2736 20.524 26.2736 25.0985 24.2893C25.1286 24.2756 25.1643 24.2799 25.1911 24.2999C25.3327 24.4094 25.481 24.519 25.6304 24.6234C25.6816 24.6592 25.6783 24.734 25.6226 24.7646C24.9179 25.1513 24.1854 25.478 23.415 25.7509C23.3648 25.7688 23.3425 25.8236 23.3671 25.8689C23.7918 26.6413 24.2768 27.3768 24.8109 28.0744C24.8332 28.1039 24.8733 28.1166 24.9101 28.106C27.2213 27.4348 29.5649 26.4221 31.9843 24.754C32.0055 24.7393 32.0189 24.7172 32.0211 24.6929C32.6109 18.9647 31.0333 13.9889 27.839 9.57782C27.8312 9.56309 27.8178 9.55254 27.8022 9.54622ZM13.3093 21.6749C11.9157 21.6749 10.7673 20.4737 10.7673 18.9984C10.7673 17.5231 11.8934 16.3219 13.3093 16.3219C14.7364 16.3219 15.8737 17.5337 15.8514 18.9984C15.8514 20.4737 14.7253 21.6749 13.3093 21.6749ZM22.7081 21.6749C21.3145 21.6749 20.1661 20.4737 20.1661 18.9984C20.1661 17.5231 21.2922 16.3219 22.7081 16.3219C24.1352 16.3219 25.2725 17.5337 25.2502 18.9984C25.2502 20.4737 24.1352 21.6749 22.7081 21.6749Z" fill="white"/>
</g>
<defs>
<clipPath id="clip0_558_1471">
<rect width="28.2857" height="20.5714" fill="white" transform="translate(3.85718 7.71429)"/>
</clipPath>
</defs>
</svg>
