<svg width="36" height="36" viewBox="0 0 36 36" fill="none" xmlns="http://www.w3.org/2000/svg">
<path d="M3.00317 18.003C3.00492 25.3821 8.37078 31.665 15.6587 32.8215V22.338H11.8532V18.003H15.6632V14.703C15.4929 13.1393 16.027 11.5809 17.1206 10.4504C18.2143 9.31988 19.7542 8.7345 21.3227 8.85298C22.4485 8.87116 23.5715 8.97142 24.6827 9.15298V12.8415H22.7867C22.1339 12.756 21.4777 12.9716 21.0028 13.4275C20.528 13.8834 20.2858 14.5303 20.3447 15.186V18.003H24.5012L23.8367 22.3395H20.3447V32.8215C28.2264 31.5759 33.7533 24.3776 32.9214 16.4416C32.0896 8.50553 25.1901 2.60987 17.2214 3.02574C9.25272 3.44162 3.00444 10.0234 3.00317 18.003Z" fill="white"/>
</svg>
