<svg width="36" height="36" viewBox="0 0 36 36" fill="none" xmlns="http://www.w3.org/2000/svg">
<path d="M18.0029 31.5615C14.3129 31.5615 13.8779 31.542 12.4379 31.479C11.315 31.4421 10.2066 31.2138 9.16043 30.804C7.3504 30.0996 5.91914 28.6678 5.21543 26.8575C4.82139 25.8076 4.60886 24.6982 4.58693 23.577C4.50293 22.14 4.50293 21.669 4.50293 18.0075C4.50293 14.307 4.52243 13.875 4.58693 12.4425C4.60934 11.3228 4.82186 10.215 5.21543 9.16651C5.91838 7.3538 7.35196 5.92077 9.16493 5.21851C10.2129 4.82281 11.3209 4.60972 12.4409 4.58851C13.8734 4.50751 14.3444 4.50751 18.0029 4.50751C21.7229 4.50751 22.1504 4.52701 23.5679 4.58851C24.6908 4.60991 25.8018 4.82297 26.8529 5.21851C28.6654 5.92156 30.0987 7.35432 30.8024 9.16651C31.2031 10.2303 31.4168 11.3554 31.4339 12.492C31.5179 13.929 31.5179 14.3985 31.5179 18.0585C31.5179 21.7185 31.4969 22.1985 31.4339 23.619C31.4116 24.7413 31.1986 25.8516 30.8039 26.9025C30.0984 28.7141 28.665 30.1464 26.8529 30.8505C25.8033 31.2438 24.6946 31.4563 23.5739 31.479C22.1414 31.5615 21.6719 31.5615 18.0029 31.5615ZM17.9519 6.88201C14.2829 6.88201 13.9019 6.90001 12.4694 6.96451C11.6144 6.97583 10.7676 7.13362 9.96593 7.43101C8.78206 7.88402 7.84527 8.817 7.38743 9.99901C7.08775 10.8095 6.92994 11.6655 6.92093 12.5295C6.84143 13.983 6.84143 14.364 6.84143 18.0075C6.84143 21.6075 6.85493 22.044 6.92093 23.4885C6.93436 24.3438 7.09207 25.1907 7.38743 25.9935C7.84594 27.1747 8.78257 28.107 9.96593 28.56C10.7671 28.8594 11.6142 29.0172 12.4694 29.0265C13.9214 29.1105 14.3039 29.1105 17.9519 29.1105C21.6314 29.1105 22.0124 29.0925 23.4329 29.0265C24.2885 29.0161 25.1359 28.8583 25.9379 28.56C27.1146 28.1031 28.0453 27.1729 28.5029 25.9965C28.802 25.1854 28.9598 24.329 28.9694 23.4645H28.9859C29.0504 22.0305 29.0504 21.648 29.0504 17.9835C29.0504 14.319 29.0339 13.9335 28.9694 12.501C28.956 11.6467 28.7983 10.8008 28.5029 9.99901C28.0464 8.82087 27.1155 7.88895 25.9379 7.43101C25.1361 7.13212 24.2886 6.97429 23.4329 6.96451C21.9824 6.88201 21.6029 6.88201 17.9519 6.88201ZM18.0029 24.936C15.1979 24.9378 12.6681 23.2496 11.5932 20.6587C10.5184 18.0678 11.1103 15.0845 13.0929 13.1002C15.0755 11.1159 18.0582 10.5214 20.6501 11.594C23.2419 12.6666 24.9323 15.195 24.9329 18C24.9288 21.8266 21.8295 24.9286 18.0029 24.936ZM18.0029 13.497C15.5176 13.497 13.5029 15.5117 13.5029 17.997C13.5029 20.4823 15.5176 22.497 18.0029 22.497C20.4882 22.497 22.5029 20.4823 22.5029 17.997C22.4972 15.5141 20.4858 13.5028 18.0029 13.497ZM25.2029 12.4275C24.3111 12.4242 23.5903 11.6994 23.5919 10.8075C23.5936 9.91565 24.3171 9.19352 25.2089 9.19352C26.1008 9.19352 26.8243 9.91564 26.8259 10.8075C26.8263 11.2378 26.6554 11.6505 26.3508 11.9545C26.0463 12.2585 25.6332 12.4287 25.2029 12.4275Z" fill="white"/>
</svg>
