<svg width="36" height="36" viewBox="0 0 36 36" fill="none" xmlns="http://www.w3.org/2000/svg">
<path d="M9.50732 22.2667C9.68313 20.811 10.2801 19.996 11.4052 19.1606C13.0149 18.029 15.0256 18.6691 15.0256 18.6691V14.872C15.5145 14.8596 16.0035 14.8885 16.487 14.9586V19.8451C16.487 19.8451 14.4769 19.205 12.8672 20.3371C11.7427 21.172 11.1445 21.9876 10.9693 23.4432C10.9638 24.2336 11.1122 25.2669 11.7952 26.1603C11.6263 26.0737 11.4542 25.975 11.2788 25.8642C9.77408 24.8538 9.5 23.3379 9.50732 22.2667ZM24.7895 7.85129C23.6822 6.63787 23.2635 5.41275 23.1121 4.55212H24.5051C24.5051 4.55212 24.2273 6.80871 26.2515 9.02786L26.2796 9.05769C25.7341 8.71453 25.2337 8.30946 24.7895 7.85129ZM31.5001 11.2915V16.0796C31.5001 16.0796 29.7225 16.01 28.407 15.6753C26.5702 15.2073 25.3896 14.4894 25.3896 14.4894C25.3896 14.4894 24.5741 13.9775 24.5081 13.9418V23.8294C24.5081 24.3799 24.3574 25.7548 23.8977 26.9015C23.2976 28.4016 22.3716 29.3863 22.2013 29.5876C22.2013 29.5876 21.0751 30.9186 19.0881 31.8149C17.2971 32.6234 15.7246 32.603 15.2546 32.6234C15.2546 32.6234 12.5363 32.7311 10.0903 31.1415C9.56136 30.7911 9.06762 30.3943 8.61548 29.9561L8.62769 29.9649C11.0743 31.5545 13.792 31.4469 13.792 31.4469C14.2626 31.4264 15.8351 31.4469 17.6255 30.6383C19.6106 29.742 20.7387 28.411 20.7387 28.411C20.9072 28.2097 21.8375 27.2251 22.4351 25.7244C22.8935 24.5782 23.0455 23.2028 23.0455 22.6522V12.7658C23.1115 12.8021 23.9264 13.314 23.9264 13.314C23.9264 13.314 25.1076 14.0325 26.9444 14.5C28.2605 14.8346 30.0375 14.9042 30.0375 14.9042V11.1522C30.6454 11.2885 31.1637 11.3254 31.5001 11.2915Z" fill="white"/>
<path d="M30.038 11.1522V14.9031C30.038 14.9031 28.261 14.8334 26.9449 14.4988C25.1081 14.0307 23.9269 13.3129 23.9269 13.3129C23.9269 13.3129 23.112 12.8009 23.0461 12.7647V22.6534C23.0461 23.2039 22.8953 24.5794 22.4356 25.7256C21.8356 27.2262 20.9095 28.2109 20.7392 28.4122C20.7392 28.4122 19.6124 29.7432 17.626 30.6395C15.8356 31.4481 14.2631 31.4276 13.7925 31.4481C13.7925 31.4481 11.0748 31.5557 8.62821 29.9661L8.616 29.9573C8.35769 29.7072 8.11454 29.4431 7.88775 29.1663C7.107 28.2144 6.62842 27.0887 6.50817 26.7675C6.50796 26.7662 6.50796 26.7648 6.50817 26.7635C6.31466 26.2053 5.90811 24.8649 5.96366 23.5667C6.06194 21.2761 6.86771 19.8702 7.08076 19.518C7.64498 18.5576 8.37883 17.6982 9.24963 16.9783C10.0181 16.357 10.8891 15.8627 11.8269 15.5156C12.8407 15.1081 13.9263 14.8897 15.0256 14.872V18.6691C15.0256 18.6691 13.0148 18.0314 11.4057 19.1606C10.2807 19.996 9.68365 20.811 9.50784 22.2667C9.50052 23.3379 9.7746 24.8538 11.2781 25.8648C11.4535 25.976 11.6256 26.0746 11.7945 26.1608C12.0572 26.5023 12.3769 26.7998 12.7407 27.0414C14.2094 27.971 15.44 28.036 17.0137 27.4322C18.0631 27.0285 18.853 26.1187 19.2192 25.1107C19.4494 24.4811 19.4463 23.8475 19.4463 23.1922V4.55212H23.1089C23.2603 5.41275 23.6791 6.63787 24.7864 7.85129C25.2306 8.30946 25.7309 8.71452 26.2765 9.05769C26.4376 9.22444 27.2617 10.0488 28.3196 10.5549C28.8666 10.8165 29.4432 11.0169 30.038 11.1522Z" fill="white"/>
<path d="M12.9519 16.6407C12.0141 16.9878 11.1431 17.4821 10.3747 18.1034C9.50358 18.8249 8.76992 19.6861 8.2064 20.6484C7.99336 20.9994 7.18759 22.4065 7.08931 24.697C7.03376 25.9953 7.44031 27.3356 7.63382 27.8938C7.63361 27.8952 7.63361 27.8965 7.63382 27.8979C7.7559 28.2162 8.23265 29.3418 9.0134 30.2966C9.24019 30.5734 9.48334 30.8375 9.74165 31.0877C8.91401 30.539 8.1759 29.8758 7.55141 29.1195C6.77738 28.1758 6.30002 27.0618 6.17549 26.733C6.17534 26.7307 6.17534 26.7283 6.17549 26.726V26.7219C5.98137 26.1643 5.5736 24.8234 5.63037 23.5234C5.72865 21.2329 6.53442 19.8269 6.74746 19.4747C7.31082 18.5123 8.0445 17.6512 8.91573 16.9297C9.684 16.3082 10.555 15.8139 11.493 15.4671C12.078 15.2344 12.6875 15.0628 13.3109 14.9551C14.2503 14.798 15.2098 14.7843 16.1537 14.9148V15.9971C15.0534 16.0144 13.9667 16.2328 12.9519 16.6407Z" fill="white"/>
<path d="M24.237 5.67715H20.5744V24.3178C20.5744 24.9731 20.5744 25.605 20.3473 26.2363C19.9774 27.2437 19.1905 28.1535 18.1418 28.5572C16.5675 29.1633 15.3369 29.096 13.8688 28.1664C13.5043 27.9259 13.1838 27.6294 12.9202 27.2888C14.1709 27.9283 15.2905 27.9171 16.6774 27.3836C17.7255 26.9799 18.5136 26.0701 18.8823 25.062C19.113 24.4325 19.11 23.7989 19.11 23.1442V4.5H24.1674C24.1674 4.5 24.1106 4.96337 24.237 5.67715ZM31.163 11.2399V12.2772C30.5693 12.1417 29.9937 11.9413 29.4477 11.6799C28.3898 11.1738 27.5657 10.3495 27.4046 10.1827C27.5916 10.3004 27.7856 10.4074 27.9857 10.5033C29.2719 11.1188 30.5385 11.3025 31.163 11.2399Z" fill="white"/>
</svg>
