<svg width="36" height="36" viewBox="0 0 36 36" fill="none" xmlns="http://www.w3.org/2000/svg">
<path d="M29.9925 10.032C31.3372 9.22815 32.3433 7.96237 32.823 6.47101C31.5595 7.22072 30.1771 7.74883 28.7355 8.03251C26.7369 5.9183 23.5703 5.4038 21.0051 6.7765C18.44 8.14919 17.1113 11.0692 17.7615 13.905C12.5859 13.6452 7.76397 11.2004 4.49552 7.17901C2.78978 10.1211 3.66145 13.8822 6.48752 15.774C5.46559 15.7412 4.46631 15.4645 3.57302 14.967C3.57302 14.994 3.57302 15.021 3.57302 15.048C3.57361 18.1127 5.73358 20.7526 8.73752 21.36C7.78962 21.6179 6.79533 21.6559 5.83052 21.471C6.67532 24.0919 9.09085 25.8874 11.844 25.941C9.56377 27.7307 6.74774 28.7013 3.84902 28.6965C3.33523 28.6973 2.82184 28.6677 2.31152 28.608C5.25511 30.4996 8.68108 31.5035 12.18 31.5C17.0479 31.5334 21.7261 29.6144 25.1681 26.172C28.6102 22.7297 30.5289 18.0514 30.495 13.1835C30.495 12.9045 30.4885 12.627 30.4755 12.351C31.7362 11.4399 32.8242 10.3112 33.6885 9.01801C32.514 9.53861 31.2682 9.8804 29.9925 10.032Z" fill="white"/>
</svg>
