<svg width="36" height="36" viewBox="0 0 36 36" fill="none" xmlns="http://www.w3.org/2000/svg">
<path d="M18.009 28.518H17.979C17.886 28.518 8.58151 28.5 6.23401 27.8625C4.94314 27.5147 3.93503 26.506 3.58801 25.215C3.16587 22.8335 2.96203 20.4185 2.97901 18C2.9681 15.5775 3.17746 13.159 3.60451 10.7745C3.96107 9.48224 4.96475 8.46889 6.25351 8.09997C8.53651 7.49997 17.5845 7.49997 17.9685 7.49997H18C18.0945 7.49997 27.423 7.51797 29.7465 8.15547C31.0347 8.50498 32.0407 9.51161 32.3895 10.8C32.8251 13.1903 33.0295 15.617 33 18.0465C33.0105 20.466 32.8007 22.8815 32.373 25.263C32.0215 26.5524 31.0128 27.5589 29.7225 27.9075C27.4425 28.512 18.393 28.518 18.009 28.518ZM15.009 13.5075L15.0015 22.5075L22.8195 18.0075L15.009 13.5075Z" fill="white"/>
</svg>
